<?xml version="1.0" encoding="UTF-8" standalone="no" ?>
<!DOCTYPE svg PUBLIC "-//W3C//DTD SVG 1.1//EN" "http://www.w3.org/Graphics/SVG/1.1/DTD/svg11.dtd">
<svg xmlns="http://www.w3.org/2000/svg" xmlns:xlink="http://www.w3.org/1999/xlink" version="1.1" width="1080" height="1080" viewBox="0 0 1080 1080" xml:space="preserve">
<desc>Created with Fabric.js 5.2.4</desc>
<defs>
</defs>
<g transform="matrix(1 0 0 1 540 540)" id="1016da27-49f0-4ec8-ae4c-1b63e75a9153"  >
</g>
<g transform="matrix(1 0 0 1 540 540)" id="b3316fee-40c5-43b6-893d-5ea2b36c47e3"  >
<rect style="stroke: none; stroke-width: 1; stroke-dasharray: none; stroke-linecap: butt; stroke-dashoffset: 0; stroke-linejoin: miter; stroke-miterlimit: 4; fill: rgb(255,255,255); fill-rule: nonzero; opacity: 1; visibility: hidden;" vector-effect="non-scaling-stroke"  x="-540" y="-540" rx="0" ry="0" width="1080" height="1080" />
</g>
<g transform="matrix(1 0 0 1 540 540)"  >
<path style="stroke: rgb(0,0,0); stroke-width: 0; stroke-dasharray: none; stroke-linecap: butt; stroke-dashoffset: 0; stroke-linejoin: miter; stroke-miterlimit: 4; fill: rgb(255,225,43); fill-rule: nonzero; opacity: 1;" vector-effect="non-scaling-stroke"  transform=" translate(-15, -14.26)" d="M 15.15 23.825 L 15 23.975 L 14.835 23.825 C 7.71 17.36 3 13.085 3 8.75 C 3 5.75 5.25 3.5 8.25 3.5 C 10.56 3.5 12.81 5 13.605 7.04 L 16.395 7.04 C 17.19 5 19.44 3.5 21.75 3.5 C 24.75 3.5 27 5.75 27 8.75 C 27 13.085 22.29 17.36 15.15 23.825 Z M 21.75 0.5 C 19.14 0.5 16.635 1.715 15 3.62 C 13.365 1.715 10.86 0.5 8.25 0.5 C 3.63 0.5 0 4.115 0 8.75 C 0 14.405 5.1 19.04 12.825 26.045 L 15 28.025 L 17.175 26.045 C 24.9 19.04 30 14.405 30 8.75 C 30 4.115 26.37 0.5 21.75 0.5 Z" stroke-linecap="round" />
</g>
<g transform="matrix(0.84 0 0 0.84 540.02 539.82)"  >
<path style="stroke: rgb(0,0,0); stroke-width: 0; stroke-dasharray: none; stroke-linecap: butt; stroke-dashoffset: 0; stroke-linejoin: miter; stroke-miterlimit: 4; fill: rgb(255,225,43); fill-rule: nonzero; opacity: 1;" vector-effect="non-scaling-stroke"  transform=" translate(-15, -14.26)" d="M 15.15 23.825 L 15 23.975 L 14.835 23.825 C 7.71 17.36 3 13.085 3 8.75 C 3 5.75 5.25 3.5 8.25 3.5 C 10.56 3.5 12.81 5 13.605 7.04 L 16.395 7.04 C 17.19 5 19.44 3.5 21.75 3.5 C 24.75 3.5 27 5.75 27 8.75 C 27 13.085 22.29 17.36 15.15 23.825 Z M 21.75 0.5 C 19.14 0.5 16.635 1.715 15 3.62 C 13.365 1.715 10.86 0.5 8.25 0.5 C 3.63 0.5 0 4.115 0 8.75 C 0 14.405 5.1 19.04 12.825 26.045 L 15 28.025 L 17.175 26.045 C 24.9 19.04 30 14.405 30 8.75 C 30 4.115 26.37 0.5 21.75 0.5 Z" stroke-linecap="round" />
</g>
<g transform="matrix(0.74 0 0 0.74 539.81 538.75)"  >
<path style="stroke: rgb(0,0,0); stroke-width: 0; stroke-dasharray: none; stroke-linecap: butt; stroke-dashoffset: 0; stroke-linejoin: miter; stroke-miterlimit: 4; fill: rgb(255,225,43); fill-rule: nonzero; opacity: 1;" vector-effect="non-scaling-stroke"  transform=" translate(-15, -14.26)" d="M 15.15 23.825 L 15 23.975 L 14.835 23.825 C 7.71 17.36 3 13.085 3 8.75 C 3 5.75 5.25 3.5 8.25 3.5 C 10.56 3.5 12.81 5 13.605 7.04 L 16.395 7.04 C 17.19 5 19.44 3.5 21.75 3.5 C 24.75 3.5 27 5.75 27 8.75 C 27 13.085 22.29 17.36 15.15 23.825 Z M 21.75 0.5 C 19.14 0.5 16.635 1.715 15 3.62 C 13.365 1.715 10.86 0.5 8.25 0.5 C 3.63 0.5 0 4.115 0 8.75 C 0 14.405 5.1 19.04 12.825 26.045 L 15 28.025 L 17.175 26.045 C 24.9 19.04 30 14.405 30 8.75 C 30 4.115 26.37 0.5 21.75 0.5 Z" stroke-linecap="round" />
</g>
<g transform="matrix(0.63 0 0 0.63 540.24 538.59)"  >
<path style="stroke: rgb(0,0,0); stroke-width: 0; stroke-dasharray: none; stroke-linecap: butt; stroke-dashoffset: 0; stroke-linejoin: miter; stroke-miterlimit: 4; fill: rgb(255,225,43); fill-rule: nonzero; opacity: 1;" vector-effect="non-scaling-stroke"  transform=" translate(-15, -14.26)" d="M 15.15 23.825 L 15 23.975 L 14.835 23.825 C 7.71 17.36 3 13.085 3 8.75 C 3 5.75 5.25 3.5 8.25 3.5 C 10.56 3.5 12.81 5 13.605 7.04 L 16.395 7.04 C 17.19 5 19.44 3.5 21.75 3.5 C 24.75 3.5 27 5.75 27 8.75 C 27 13.085 22.29 17.36 15.15 23.825 Z M 21.75 0.5 C 19.14 0.5 16.635 1.715 15 3.62 C 13.365 1.715 10.86 0.5 8.25 0.5 C 3.63 0.5 0 4.115 0 8.75 C 0 14.405 5.1 19.04 12.825 26.045 L 15 28.025 L 17.175 26.045 C 24.9 19.04 30 14.405 30 8.75 C 30 4.115 26.37 0.5 21.75 0.5 Z" stroke-linecap="round" />
</g>
<g transform="matrix(0.56 0 0 0.55 540.13 538.5)"  >
<path style="stroke: rgb(0,0,0); stroke-width: 0; stroke-dasharray: none; stroke-linecap: butt; stroke-dashoffset: 0; stroke-linejoin: miter; stroke-miterlimit: 4; fill: rgb(255,225,43); fill-rule: nonzero; opacity: 1;" vector-effect="non-scaling-stroke"  transform=" translate(-15, -14.26)" d="M 15.15 23.825 L 15 23.975 L 14.835 23.825 C 7.71 17.36 3 13.085 3 8.75 C 3 5.75 5.25 3.5 8.25 3.5 C 10.56 3.5 12.81 5 13.605 7.04 L 16.395 7.04 C 17.19 5 19.44 3.5 21.75 3.5 C 24.75 3.5 27 5.75 27 8.75 C 27 13.085 22.29 17.36 15.15 23.825 Z M 21.75 0.5 C 19.14 0.5 16.635 1.715 15 3.62 C 13.365 1.715 10.86 0.5 8.25 0.5 C 3.63 0.5 0 4.115 0 8.75 C 0 14.405 5.1 19.04 12.825 26.045 L 15 28.025 L 17.175 26.045 C 24.9 19.04 30 14.405 30 8.75 C 30 4.115 26.37 0.5 21.75 0.5 Z" stroke-linecap="round" />
</g>
<g transform="matrix(0.23 0 0 0.23 541 538)" id="24022f2f-43b4-46bb-a623-1974aa2e13d8"  >
<circle style="stroke: rgb(0,0,0); stroke-width: 0; stroke-dasharray: none; stroke-linecap: butt; stroke-dashoffset: 0; stroke-linejoin: miter; stroke-miterlimit: 4; fill: rgb(255,225,43); fill-rule: nonzero; opacity: 1;" vector-effect="non-scaling-stroke"  cx="0" cy="0" r="35" />
</g>
</svg>